<svg xmlns="http://www.w3.org/2000/svg" version="1.2" viewBox="0 0 1511 1511" width="1511" height="1511"><style>.a{fill:#fff}</style><path d="m269 0h973c148.6 0 269 120.4 269 269v973c0 148.6-120.4 269-269 269h-973c-148.6 0-269-120.4-269-269v-973c0-148.6 120.4-269 269-269z"/><path fill-rule="evenodd" class="a" d="m630.1 1064.3l14.9-59.6c50.5-27.7 90.8-71.7 113.7-124.8-47.3 51.2-115.2 83.3-190.5 83.3-51.9 0-100.1-15.1-140.4-41.2l-39.8 142.3c0 0-199.3 0-200 0l162.4-619.3h210.5l-0.1 0.1q3.7-0.1 7.4-0.1c77.6 0 147.2 34 194.7 88l22-88h201.9l-46.9 180.8 183.7-180.8h248.8l-322.8 332.6 223.9 286.7h-290.8l-116.6-154.6-40.3 154.6c0 0-195 0-195.7 0z"/></svg>
